#N canvas 1364 1 1366 685 12;
#X obj 78 257 chord;
#X floatatom 83 190 5 0 0 0 - - - 0;
#X floatatom 135 190 5 0 0 0 - - - 0;
#X obj 985 273 bng 19 250 50 0 empty empty empty 0 -10 0 12 #fcfcfc #000000 #000000;
#X floatatom 85 313 5 0 0 0 - - - 0;
#N canvas 0 50 450 250 (subpatch) 0;
#X array diminished 6 float 3;
#A 0 32 41 47 50 53 56;
#X coords 0 58 6 28 200 50 1 0 0;
#X restore 543 226 graph;
#X obj 302 70 loadbang;
#X msg 302 94 \; diminished read dim_chord.txt;
#X obj 85 336 tabread diminished;
#X floatatom 85 401 5 0 0 0 - - - 0;
#X obj 266 285 tgl 19 0 empty empty empty 0 -10 0 12 #fcfcfc #000000 #000000 0 1;
#X floatatom 293 284 5 0 0 0 - - - 0;
#X floatatom 340 284 5 0 0 0 - - - 0;
#X obj 327 317 ==;
#X obj 279 320 ==;
#X obj 279 344 tgl 19 0 empty empty empty 0 -10 0 12 #fcfcfc #000000 #000000 0 1;
#X obj 327 341 tgl 19 0 empty empty empty 0 -10 0 12 #fcfcfc #000000 #000000 0 1;
#X obj 379 339 bng 19 250 50 0 empty empty empty 0 -10 0 12 #fcfcfc #000000 #000000;
#X obj 248 403 spigot;
#X obj 313 402 spigot;
#X obj 327 233 loadbang;
#X msg 327 257 1;
#X obj 48 526 pack 0 0;
#X listbox 879 303 20 0 0 0 - - - 0;
#X obj 135 159 array size;
#X msg 138 36 symbol diminished;
#X obj 141 112 t b s;
#N canvas 0 50 450 250 (subpatch) 0;
#X array major 3 float 3;
#A 0 32 35 37;
#X coords 0 58 3 28 200 50 1 0 0;
#X restore 545 157 graph;
#X obj 544 69 loadbang;
#X msg 544 93 \; major read maj_chord.txt;
#X msg 160 65 symbol major;
#X msg 130 287 set diminished;
#X floatatom 211 470 5 0 0 0 - - - 0;
#X floatatom 222 501 5 0 0 0 - - - 0;
#X obj 48 120 loadbang;
#X obj 177 404 loadbang;
#X msg 200 442 70;
#X msg 48 144 10;
#X msg 144 313 set major;
#X obj 168 530 t b f;
#X obj 14 228 delay 1;
#X obj 881 47 vradio 19 1 0 8 empty empty Octave 0 -10 0 12 #fcfcfc #000000 #000000 0;
#X obj 925 47 vradio 20 1 0 11 empty empty Key 0 -10 0 12 #ffffff #000000 #000000 0;
#X obj 639 436 * 12;
#X text 955 47 Ab;
#X text 955 66 A;
#X text 955 88 Bb;
#X text 955 108 B;
#X text 955 128 C;
#X text 956 147 Db;
#X text 956 167 D;
#X text 955 187 Eb;
#X text 956 206 E;
#X text 956 227 F;
#X text 956 249 G;
#X text 865 47 1;
#X text 867 180 8;
#X obj 85 424 +;
#X obj 85 448 +;
#X obj 121 424 r oct;
#X obj 122 450 r key;
#X obj 639 460 s oct;
#X obj 712 462 s key;
#X obj 991 46 bng 19 250 50 0 empty empty empty 0 -10 0 12 #fcfcfc #000000 #000000;
#X obj 991 68 bng 19 250 50 0 empty empty empty 0 -10 0 12 #fcfcfc #000000 #000000;
#X text 1010 274 ON/OFF;
#X text 1015 46 Dim.;
#X text 1016 67 Maj.;
#X floatatom 865 275 5 0 0 0 - - - 0;
#X text 904 275 int. ms;
#X obj 893 364 outlet;
#X connect 0 0 4 0;
#X connect 1 0 0 1;
#X connect 2 0 0 2;
#X connect 3 0 10 0;
#X connect 3 0 40 0;
#X connect 4 0 8 0;
#X connect 6 0 7 0;
#X connect 8 0 9 0;
#X connect 9 0 17 0;
#X connect 9 0 57 0;
#X connect 10 0 14 0;
#X connect 10 0 13 0;
#X connect 11 0 14 1;
#X connect 12 0 13 1;
#X connect 13 0 16 0;
#X connect 14 0 15 0;
#X connect 15 0 18 1;
#X connect 16 0 19 1;
#X connect 17 0 18 0;
#X connect 17 0 19 0;
#X connect 18 0 32 0;
#X connect 19 0 33 0;
#X connect 20 0 21 0;
#X connect 21 0 12 0;
#X connect 22 0 23 0;
#X connect 23 0 70 0;
#X connect 24 0 2 0;
#X connect 25 0 26 0;
#X connect 25 0 31 0;
#X connect 26 0 24 0;
#X connect 26 1 24 1;
#X connect 28 0 29 0;
#X connect 30 0 26 0;
#X connect 30 0 38 0;
#X connect 31 0 8 0;
#X connect 32 0 39 0;
#X connect 33 0 39 0;
#X connect 34 0 37 0;
#X connect 35 0 36 0;
#X connect 36 0 32 0;
#X connect 37 0 1 0;
#X connect 38 0 8 0;
#X connect 39 0 22 0;
#X connect 39 1 22 1;
#X connect 40 0 0 0;
#X connect 41 0 43 0;
#X connect 42 0 62 0;
#X connect 43 0 61 0;
#X connect 57 0 58 0;
#X connect 58 0 22 0;
#X connect 59 0 57 1;
#X connect 60 0 58 1;
#X connect 63 0 25 0;
#X connect 64 0 30 0;
#X connect 68 0 1 0;
#X coords 0 -1 1 1 210 320 1 860 5;
