#N canvas 26 26 1366 685 12;
#X obj 309 164 tgl 19 0 empty empty empty 0 -10 0 12 #fcfcfc #000000 #000000 0 1;
#X obj 449 253 + 1;
#X floatatom 334 165 5 0 0 0 - - - 0;
#X floatatom 391 257 5 0 0 0 - - - 0;
#X obj 375 310 t b f;
#X floatatom 484 128 5 0 0 0 - - - 0;
#X obj 323 252 tgl 19 0 empty empty empty 17 7 0 10 #dfdfdf #000000 #000000 0 1;
#X obj 391 225 int 0;
#X obj 286 254 bng 19 250 50 0 empty empty empty 0 -10 0 12 #fcfcfc #000000 #000000;
#X obj 292 287 spigot;
#X obj 292 311 s reset_ch;
#X obj 308 129 r reset_ch;
#X text 585 90 Number of notes in chord;
#X obj 540 96 inlet;
#X obj 445 72 inlet;
#X obj 242 73 inlet;
#X text 382 49 Delay (ms) between notes;
#X text 211 47 Turn on chord;
#X obj 391 122 metro 10;
#X obj 484 151 - 1;
#X obj 323 224 <=;
#X msg 382 92 150;
#X obj 405 384 outlet;
#X connect 0 0 18 0;
#X connect 1 0 7 1;
#X connect 2 0 7 1;
#X connect 3 0 4 0;
#X connect 4 0 20 0;
#X connect 4 1 20 1;
#X connect 4 1 22 0;
#X connect 5 0 19 0;
#X connect 6 0 9 1;
#X connect 7 0 1 0;
#X connect 7 0 3 0;
#X connect 8 0 9 0;
#X connect 9 0 10 0;
#X connect 11 0 2 0;
#X connect 11 0 0 0;
#X connect 13 0 5 0;
#X connect 14 0 18 1;
#X connect 15 0 0 0;
#X connect 18 0 7 0;
#X connect 19 0 20 0;
#X connect 20 0 6 0;
#X connect 20 0 8 0;
#X connect 21 0 18 1;
