#N canvas 1362 721 1366 685 12;
#X obj 139 113 tgl 19 0 empty empty empty 0 -10 0 12 #fcfcfc #000000 #000000 0 1;
#X obj 222 169 bng 19 250 50 0 empty empty empty 0 -10 0 12 #fcfcfc #000000 #000000;
#X obj 232 333 %;
#X floatatom 232 357 5 0 0 0 - - - 0;
#X obj 209 293 + 1;
#X floatatom 166 296 5 0 0 0 - - - 0;
#X obj 166 267 int 1;
#X obj 250 416 ==;
#X floatatom 284 388 5 0 0 0 - - - 0;
#X obj 203 463 spigot;
#X msg 251 247 1;
#X obj 357 280 random 10;
#X floatatom 392 329 5 0 0 0 - - - 0;
#X obj 567 215 tgl 19 0 empty empty empty 0 -10 0 12 #fcfcfc #000000 #000000 0 1;
#X floatatom 594 214 5 0 0 0 - - - 0;
#X floatatom 641 214 5 0 0 0 - - - 0;
#X obj 628 247 ==;
#X obj 580 250 ==;
#X obj 580 274 tgl 19 0 empty empty empty 0 -10 0 12 #fcfcfc #000000 #000000 0 1;
#X obj 628 271 tgl 19 0 empty empty empty 0 -10 0 12 #fcfcfc #000000 #000000 0 1;
#X obj 234 196 s note_increment;
#X obj 680 245 r note_increment;
#X obj 680 269 bng 19 250 50 0 empty empty empty 0 -10 0 12 #fcfcfc #000000 #000000;
#X obj 549 333 spigot;
#X obj 614 332 spigot;
#X obj 555 371 bng 19 250 50 0 empty empty empty 0 -10 0 12 #fcfcfc #000000 #000000;
#X obj 616 371 bng 19 250 50 0 empty empty empty 0 -10 0 12 #fcfcfc #000000 #000000;
#X obj 628 163 loadbang;
#X msg 628 187 1;
#X obj 203 487 s rand_gen;
#X obj 357 255 r rand_gen;
#X msg 570 394 1;
#X msg 605 393 -1;
#X obj 600 433 +;
#X floatatom 825 399 5 0 0 0 - - - 0;
#X obj 660 434 int;
#X obj 222 145 metro 150;
#X text 281 240 reset counter;
#X text 434 328 run length;
#X floatatom 296 109 5 0 0 0 - - - 0;
#X obj 732 421 % 48;
#X floatatom 166 113 5 0 0 0 - - - 0;
#X obj 152 149 ==;
#X obj 152 173 bng 19 250 50 0 empty empty empty 0 -10 0 12 #fcfcfc #000000 #000000;
#X text 165 84 ON/OFF;
#X obj 140 216 s res;
#X obj 825 321 r res;
#X obj 778 421 abs;
#X obj 825 345 random 48;
#X obj 203 508 s flipflop;
#X obj 539 179 r flipflop;
#X text 812 129 DO NOTE: This patch returns a note position within an octave. further processing is needed to produce the desired MIDI notes.;
#X obj 296 50 inlet;
#X obj 139 50 inlet;
#X obj 419 47 inlet;
#X obj 419 71 s tonicnum;
#X obj 844 279 r tonicnum;
#X obj 827 470 outlet;
#X obj 273 303 + 2;
#X connect 0 0 36 0;
#X connect 0 0 42 0;
#X connect 1 0 6 0;
#X connect 1 0 9 0;
#X connect 1 0 20 0;
#X connect 2 0 3 0;
#X connect 3 0 7 0;
#X connect 4 0 6 1;
#X connect 5 0 2 0;
#X connect 6 0 5 0;
#X connect 6 0 4 0;
#X connect 7 0 9 1;
#X connect 8 0 7 1;
#X connect 9 0 10 0;
#X connect 9 0 29 0;
#X connect 9 0 49 0;
#X connect 10 0 6 1;
#X connect 11 0 58 0;
#X connect 13 0 17 0;
#X connect 13 0 16 0;
#X connect 14 0 17 1;
#X connect 15 0 16 1;
#X connect 16 0 19 0;
#X connect 17 0 18 0;
#X connect 18 0 23 1;
#X connect 19 0 24 1;
#X connect 21 0 22 0;
#X connect 22 0 23 0;
#X connect 22 0 24 0;
#X connect 23 0 25 0;
#X connect 24 0 26 0;
#X connect 25 0 31 0;
#X connect 26 0 32 0;
#X connect 27 0 28 0;
#X connect 28 0 15 0;
#X connect 30 0 11 0;
#X connect 31 0 33 0;
#X connect 32 0 33 0;
#X connect 33 0 35 0;
#X connect 34 0 57 0;
#X connect 35 0 33 1;
#X connect 35 0 40 0;
#X connect 36 0 1 0;
#X connect 39 0 36 1;
#X connect 40 0 47 0;
#X connect 41 0 42 1;
#X connect 42 0 43 0;
#X connect 43 0 10 0;
#X connect 43 0 45 0;
#X connect 46 0 48 0;
#X connect 47 0 34 0;
#X connect 48 0 34 0;
#X connect 48 0 35 0;
#X connect 50 0 13 0;
#X connect 52 0 39 0;
#X connect 53 0 0 0;
#X connect 54 0 55 0;
#X connect 56 0 48 1;
#X connect 56 0 40 1;
#X connect 58 0 2 1;
#X connect 58 0 12 0;
