#N canvas 1362 721 1366 685 12;
#X obj 94 37 tgl 19 0 empty empty empty 0 -10 0 12 #fcfcfc #000000 #000000 0 1;
#X obj 98 95 bng 19 250 50 0 empty empty empty 0 -10 0 12 #fcfcfc #000000 #000000;
#X obj 108 259 %;
#X floatatom 108 283 5 0 0 0 - - - 0;
#X obj 85 219 + 1;
#X floatatom 42 222 5 0 0 0 - - - 0;
#X obj 42 193 int 1;
#X obj 126 342 ==;
#X floatatom 160 314 5 0 0 0 - - - 0;
#X obj 79 389 spigot;
#X msg 115 163 1;
#X obj 233 206 random 10;
#X obj 149 229 + 3;
#X floatatom 268 255 5 0 0 0 - - - 0;
#X obj 230 408 tgl 19 0 empty empty empty 0 -10 0 12 #fcfcfc #000000 #000000 0 1;
#X floatatom 257 407 5 0 0 0 - - - 0;
#X floatatom 304 407 5 0 0 0 - - - 0;
#X obj 291 440 ==;
#X obj 243 443 ==;
#X obj 243 467 tgl 19 0 empty empty empty 0 -10 0 12 #fcfcfc #000000 #000000 0 1;
#X obj 291 464 tgl 19 0 empty empty empty 0 -10 0 12 #fcfcfc #000000 #000000 0 1;
#X obj 98 71 metro 500;
#X obj 110 122 s note_increment;
#X obj 343 438 r note_increment;
#X obj 343 462 bng 19 250 50 0 empty empty empty 0 -10 0 12 #fcfcfc #000000 #000000;
#X obj 212 526 spigot;
#X obj 277 525 spigot;
#X obj 218 564 bng 19 250 50 0 empty empty empty 0 -10 0 12 #fcfcfc #000000 #000000;
#X obj 279 564 bng 19 250 50 0 empty empty empty 0 -10 0 12 #fcfcfc #000000 #000000;
#X obj 291 356 loadbang;
#X msg 291 380 1;
#X obj 79 413 s rand_gen;
#X obj 233 181 r rand_gen;
#X text 316 560 TO ADD HERE: add or subtract from the given number. Outlet as well.;
#X floatatom 148 561 5 0 0 0 - - - 0;
#X connect 0 0 21 0;
#X connect 1 0 6 0;
#X connect 1 0 9 0;
#X connect 1 0 22 0;
#X connect 2 0 3 0;
#X connect 3 0 7 0;
#X connect 4 0 6 1;
#X connect 5 0 2 0;
#X connect 6 0 5 0;
#X connect 6 0 4 0;
#X connect 7 0 9 1;
#X connect 8 0 7 1;
#X connect 9 0 10 0;
#X connect 9 0 14 0;
#X connect 9 0 31 0;
#X connect 10 0 6 1;
#X connect 11 0 12 0;
#X connect 12 0 2 1;
#X connect 12 0 13 0;
#X connect 14 0 18 0;
#X connect 14 0 17 0;
#X connect 15 0 18 1;
#X connect 16 0 17 1;
#X connect 17 0 20 0;
#X connect 18 0 19 0;
#X connect 19 0 25 1;
#X connect 20 0 26 1;
#X connect 21 0 1 0;
#X connect 23 0 24 0;
#X connect 24 0 25 0;
#X connect 24 0 26 0;
#X connect 25 0 27 0;
#X connect 26 0 28 0;
#X connect 29 0 30 0;
#X connect 30 0 16 0;
#X connect 32 0 11 0;
