#N canvas -8 -8 1366 685 12;
#X obj 175 95 tgl 19 0 empty empty empty 0 -10 0 12 #fcfcfc #000000 #000000 0 1;
#X obj 179 153 bng 19 250 50 0 empty empty empty 0 -10 0 12 #fcfcfc #000000 #000000;
#X msg 621 181 \; pd dsp \$1;
#X text 641 141 DSP on/off;
#X obj 613 146 tgl 19 0 empty empty empty 0 -10 0 12 #fcfcfc #000000 #000000 0 1;
#X obj 189 317 %;
#X floatatom 189 341 5 0 0 0 - - - 0;
#X obj 360 385 + 1;
#X floatatom 123 280 5 0 0 0 - - - 0;
#X obj 123 251 int 1;
#X obj 207 400 ==;
#X floatatom 241 372 5 0 0 0 - - - 0;
#X obj 160 447 spigot;
#X msg 196 221 1;
#X obj 259 228 random 10;
#X obj 230 287 + 3;
#X floatatom 294 277 5 0 0 0 - - - 0;
#X obj 179 129 metro 150;
#X connect 0 0 17 0;
#X connect 1 0 9 0;
#X connect 1 0 12 0;
#X connect 4 0 2 0;
#X connect 5 0 6 0;
#X connect 6 0 10 0;
#X connect 7 0 9 1;
#X connect 8 0 5 0;
#X connect 9 0 8 0;
#X connect 9 0 7 0;
#X connect 10 0 12 1;
#X connect 11 0 10 1;
#X connect 12 0 13 0;
#X connect 12 0 14 0;
#X connect 13 0 9 1;
#X connect 14 0 15 0;
#X connect 15 0 5 1;
#X connect 15 0 16 0;
#X connect 17 0 1 0;
