#N canvas 1340 82 1366 685 12;
#X obj 170 122 run, f 7;
#X obj 153 86 tgl 19 0 empty empty empty 0 -10 0 12 #fcfcfc #000000 #000000 0 1;
#X floatatom 190 83 5 0 0 0 - - - 0;
#X floatatom 235 85 5 0 0 0 - - - 0;
#X floatatom 170 146 5 0 0 0 - - - 0;
#N canvas 26 26 450 250 (subpatch) 0;
#X array array 7 float 3;
#A 0 32 35 37 38 39 42 44;
#X coords 0 30 7 50 200 50 1 0 0;
#X restore 408 119 graph;
#X obj 721 70 loadbang;
#X floatatom 170 281 5 0 0 0 - - - 0;
#X obj 170 257 tabread array;
#X msg 721 95 \; array read noterun.txt;
#X obj 410 194 vradio 19 1 0 8 empty empty Octave 0 -10 0 12 #fcfcfc #000000 #000000 0;
#X obj 459 194 vradio 20 1 0 11 empty empty Key 0 -10 0 12 #ffffff #000000 #000000 0;
#X obj 360 357 * 12;
#X text 486 194 Ab;
#X text 487 216 A;
#X text 487 235 Bb;
#X text 489 255 B;
#X text 489 275 C;
#X text 488 294 Db;
#X text 490 314 D;
#X text 489 334 Eb;
#X text 490 353 E;
#X text 490 375 F;
#X text 490 396 G;
#X text 433 194 1;
#X text 435 327 8;
#X obj 170 304 +;
#X obj 170 328 +;
#X floatatom 170 352 5 0 0 0 - - - 0;
#X obj 325 494 pack 0 0;
#X listbox 500 425 20 0 0 0 - - - 0;
#X floatatom 295 180 5 0 0 0 - - - 0;
#X obj 190 34 loadbang;
#X obj 269 169 bng 19 250 50 0 empty empty empty 0 -10 0 12 #fcfcfc #000000 #000000;
#X obj 278 220 delay;
#X obj 278 244 bng 19 250 50 0 empty empty empty 0 -10 0 12 #fcfcfc #000000 #000000;
#X msg 223 353 70;
#X msg 260 355 0;
#X obj 246 288 s change_pack;
#X obj 49 357 r change_pack;
#X obj 295 156 - 10;
#X msg 190 58 150;
#X msg 233 60 7;
#X obj 80 146 s startstop;
#X obj 80 121 delay 50;
#X floatatom 522 182 5 0 0 0 - - - 0;
#X floatatom 522 206 5 0 0 0 - - - 0;
#X obj 523 229 tgl 19 0 empty empty empty 0 -10 0 12 #fcfcfc #000000 #000000 0 1;
#X text 552 229 ON/OFF;
#X text 565 183 TONE_NUM;
#X text 565 205 INTERVAL ms;
#X obj 501 478 outlet;
#X connect 0 0 4 0;
#X connect 1 0 0 0;
#X connect 1 0 44 0;
#X connect 2 0 40 0;
#X connect 2 0 0 1;
#X connect 3 0 0 2;
#X connect 4 0 8 0;
#X connect 4 0 33 0;
#X connect 6 0 9 0;
#X connect 7 0 26 0;
#X connect 8 0 7 0;
#X connect 10 0 12 0;
#X connect 11 0 27 1;
#X connect 12 0 26 1;
#X connect 26 0 27 0;
#X connect 27 0 28 0;
#X connect 28 0 29 0;
#X connect 29 0 30 0;
#X connect 30 0 51 0;
#X connect 31 0 34 1;
#X connect 32 0 41 0;
#X connect 32 0 42 0;
#X connect 33 0 34 0;
#X connect 33 0 36 0;
#X connect 33 0 38 0;
#X connect 34 0 35 0;
#X connect 35 0 37 0;
#X connect 35 0 38 0;
#X connect 36 0 29 1;
#X connect 37 0 29 1;
#X connect 39 0 29 0;
#X connect 40 0 31 0;
#X connect 41 0 2 0;
#X connect 42 0 3 0;
#X connect 44 0 43 0;
#X connect 45 0 3 0;
#X connect 46 0 2 0;
#X connect 47 0 1 0;
#X coords 800 -1 1000 1 250 370 1 400 80;
